<?xml version="1.0" standalone="no"?>
<svg xmlns="http://www.w3.org/2000/svg" viewBox="0 0 162.336 29" width="162.336" height="29"><g fill="#4b92dc" color="#4b92dc" transform="translate(0, 0) scale(0.29)"><svg width="100.0" height="100.0" x="0.0" y="0.0" viewBox="0 0 100 100"><polygon points="91.822,10.995 91.822,5.312 52.71,29.765 "></polygon><polygon points="52.71,31.876 52.71,98.688 100,76.418 100,9.605 "></polygon><polygon points="8.178,10.995 8.178,5.312 47.29,29.765 "></polygon><polygon points="47.29,31.876 47.29,98.688 0,76.418 0,9.605 "></polygon></svg></g><line x1="41" y1="1" x2="41" y2="28" stroke="#ff8d1e" stroke-linecap="round"></line><path fill="#ff8d1e" fill-rule="nonzero" d="M0 15.48L0 0.29L8.93 0.29L8.93 1.80L1.78 1.80L1.78 6.82L7.80 6.82L7.80 8.33L1.78 8.33L1.78 13.97L9.24 13.97L9.24 15.48L0 15.48ZM12.43 0.86L14.04 0L14.04 15.48L12.43 15.48L12.43 0.86ZM17.90 4.58L19.49 4.58L19.49 15.48L17.90 15.48L17.90 4.58ZM17.66 1.03L17.66 1.03Q17.66 0.62 17.98 0.31Q18.29 0 18.72 0L18.72 0Q19.15 0 19.46 0.31Q19.78 0.62 19.78 1.03L19.78 1.03Q19.78 1.49 19.46 1.79Q19.15 2.09 18.72 2.09L18.72 2.09Q18.26 2.09 17.96 1.79Q17.66 1.49 17.66 1.03ZM29.09 5.90L25.75 5.90L25.73 12.72Q25.73 14.47 27.14 14.47L27.14 14.47Q27.94 14.47 28.70 14.06L28.70 14.06L29.28 14.95Q28.10 15.77 26.81 15.77L26.81 15.77Q25.54 15.77 24.84 14.98Q24.14 14.18 24.14 12.77L24.14 12.77L24.14 5.90L22.49 5.90L22.49 4.58L24.17 4.58L24.17 2.21L25.75 1.39L25.75 4.58L29.09 4.58L29.09 5.90ZM40.78 10.06L40.78 10.58L33 10.58Q33.10 12.34 34.21 13.39Q35.33 14.45 37.10 14.45L37.10 14.45Q38.59 14.45 40.01 13.56L40.01 13.56L40.56 14.52Q38.98 15.77 36.74 15.77L36.74 15.77Q34.15 15.77 32.62 14.06L32.62 14.06Q31.20 12.53 31.20 10.08L31.20 10.08Q31.20 7.54 32.71 5.83L32.71 5.83Q34.08 4.30 36.10 4.30L36.10 4.30Q38.52 4.30 39.79 6.26L39.79 6.26Q40.78 7.80 40.78 10.06L40.78 10.06ZM32.98 9.29L32.98 9.29L39.12 9.29Q39.05 7.54 38.27 6.55Q37.49 5.57 36.12 5.57L36.12 5.57Q34.82 5.57 33.95 6.60Q33.07 7.63 32.98 9.29ZM44.09 15.46L44.09 15.46L44.09 0.29Q46.03 0 48.00 0L48.00 0Q50.76 0 52.08 1.32L52.08 1.32Q53.11 2.38 53.11 4.10L53.11 4.10Q53.11 5.30 52.38 6.19Q51.65 7.08 50.45 7.37L50.45 7.37L50.45 7.39Q51.91 7.63 52.75 8.72Q53.59 9.82 53.59 11.47L53.59 11.47Q53.59 13.66 51.89 14.78L51.89 14.78Q50.42 15.77 48.00 15.77L48.00 15.77Q46.22 15.77 44.09 15.46ZM45.86 1.58L45.86 1.58L45.86 6.70L48.36 6.70Q49.66 6.70 50.46 6.04Q51.26 5.38 51.26 4.27L51.26 4.27Q51.26 1.42 47.95 1.42L47.95 1.42Q46.68 1.42 45.86 1.58ZM48.36 8.18L45.86 8.18L45.86 14.18Q46.87 14.33 48.22 14.33L48.22 14.33Q51.70 14.33 51.70 11.45L51.70 11.45Q51.70 9.91 50.82 9.05Q49.94 8.18 48.36 8.18L48.36 8.18ZM66.43 10.06L66.43 10.06Q66.43 12.65 64.80 14.30L64.80 14.30Q63.34 15.77 61.20 15.77L61.20 15.77Q58.73 15.77 57.22 13.90L57.22 13.90Q55.94 12.31 55.94 10.06L55.94 10.06Q55.94 7.42 57.53 5.78L57.53 5.78Q58.97 4.30 61.20 4.30L61.20 4.30Q63.72 4.30 65.21 6.19L65.21 6.19Q66.43 7.78 66.43 10.06ZM57.67 10.06L57.67 10.06Q57.67 12.14 58.75 13.37L58.75 13.37Q59.71 14.45 61.18 14.45L61.18 14.45Q62.76 14.45 63.73 13.24Q64.70 12.02 64.70 10.06L64.70 10.06Q64.70 7.99 63.65 6.74L63.65 6.74Q62.69 5.59 61.20 5.59L61.20 5.59Q59.62 5.59 58.64 6.83Q57.67 8.06 57.67 10.06ZM79.22 10.06L79.22 10.06Q79.22 12.65 77.59 14.30L77.59 14.30Q76.13 15.77 73.99 15.77L73.99 15.77Q71.52 15.77 70.01 13.90L70.01 13.90Q68.74 12.31 68.74 10.06L68.74 10.06Q68.74 7.42 70.32 5.78L70.32 5.78Q71.76 4.30 73.99 4.30L73.99 4.30Q76.51 4.30 78 6.19L78 6.19Q79.22 7.78 79.22 10.06ZM70.46 10.06L70.46 10.06Q70.46 12.14 71.54 13.37L71.54 13.37Q72.50 14.45 73.97 14.45L73.97 14.45Q75.55 14.45 76.52 13.24Q77.50 12.02 77.50 10.06L77.50 10.06Q77.50 7.99 76.44 6.74L76.44 6.74Q75.48 5.59 73.99 5.59L73.99 5.59Q72.41 5.59 71.44 6.83Q70.46 8.06 70.46 10.06ZM87.79 4.58L90.02 4.58L85.20 8.83L90.60 15.48L88.66 15.48L83.86 9.43L83.86 15.48L82.25 15.48L82.25 0.86L83.86 0L83.86 8.23L87.79 4.58ZM101.21 10.06L101.21 10.58L93.43 10.58Q93.53 12.34 94.64 13.39Q95.76 14.45 97.54 14.45L97.54 14.45Q99.02 14.45 100.44 13.56L100.44 13.56L100.99 14.52Q99.41 15.77 97.18 15.77L97.18 15.77Q94.58 15.77 93.05 14.06L93.05 14.06Q91.63 12.53 91.63 10.08L91.63 10.08Q91.63 7.54 93.14 5.83L93.14 5.83Q94.51 4.30 96.53 4.30L96.53 4.30Q98.95 4.30 100.22 6.26L100.22 6.26Q101.21 7.80 101.21 10.06L101.21 10.06ZM93.41 9.29L93.41 9.29L99.55 9.29Q99.48 7.54 98.70 6.55Q97.92 5.57 96.55 5.57L96.55 5.57Q95.26 5.57 94.38 6.60Q93.50 7.63 93.41 9.29ZM111.34 5.52L111.34 5.52L110.02 6.43Q109.20 5.71 108.26 5.71L108.26 5.71Q106.90 5.71 105.84 7.13L105.84 7.13L105.84 15.48L104.23 15.48L104.23 4.58L105.60 4.58L105.74 5.74L105.79 5.74Q107.21 4.30 108.70 4.30L108.70 4.30Q110.45 4.30 111.34 5.52Z" transform="translate(51, 6.76)"></path></svg>